<svg version="1" xmlns="http://www.w3.org/2000/svg" width="853.333" height="853.333" viewBox="0 0 640.000000 640.000000"><path d="M302 91.5c-91.1 7-169.1 67-198.6 152.8-2.4 7-4.4 13.6-4.4 14.5.1.9 3.8 4.5 8.3 7.9 4.5 3.4 11.4 9 15.3 12.5 3.9 3.5 9.2 8 11.7 10 2.5 2.1 7.1 7.7 10.3 12.5 3.2 4.9 6.1 9.2 6.6 9.8.5.6 10.9 1.2 25.2 1.5 19.6.4 24.6.8 26.1 2 1.6 1.3.2 1.6-14.6 2-9 .3-34.1.6-55.8.8-21.7.1-39.7.5-40 .7-.2.3 25.2.5 56.6.5h57l.7-8.1c2.9-34.8 20.9-65.6 49.6-84.8 17.8-12 34.7-18 54.9-19.7l8.1-.7v-57.8c0-31.9-.1-57.8-.2-57.8-.2.1-7.7.7-16.8 1.4zm15.5 109.4c.3.6-.9 1.2-2.7 1.5-6.4 1-23.3 1.8-22.6 1.1 2.3-2.4 24-4.6 25.3-2.6zM321 147.8v57.9l7.8.7c27.7 2.3 52.4 13.6 71.8 33 19.4 19.5 30.3 43.4 33 72.3l.7 7.3h115.9l-.6-5.8c-.3-3.1-.8-9.8-1.1-14.7-.3-5-2-15.9-3.6-24.4-15.7-79.3-73.4-145-150.7-171.5-14.7-5-39.3-10.2-52.7-11.1-4.9-.3-11.6-.8-14.7-1.1l-5.8-.6v58zM345.9 285.4c-.2.2-2.6.7-5.4 1-10 1.3-18.2 4-25.5 8.4-9.9 5.9-12.9 8.9-20.4 20.2-7.1 10.7-7.8 12.5-10.1 26.1-1.6 9.4-1.6 9.9.5 20.4 2.4 12.4 2.1 11.7 11 25 6.3 9.3 7.4 10.5 16.4 16.3 16.3 10.8 27.7 13 47.3 9.2 11.4-2.2 12.1-2.4 22.4-9.1 10-6.6 10.9-7.5 17.1-16.7 8.5-12.7 8.2-11.8 10.9-25.9 2.1-11.3 2.2-12.9 1-19.9-1.7-10.1-3.4-14.7-8.1-22-2.2-3.3-4-6.5-4-7 0-1.8-11.4-12.1-17.8-16.2-7.6-4.9-16.1-7.9-26.2-9.2-9-1.1-8.6-1.1-9.1-.6zm26.9 67.2c19.2 8 16.5 35.8-3.8 40.3-11 2.4-22.3-4.8-25-16-2.4-10.1 3.2-20.9 13-24.8 3.8-1.5 11.6-1.3 15.8.5zM204.7 327.7c1.9 28.7 13.4 54.1 33.5 74.6 17 17.3 37.7 27.9 61.3 31.5 11.7 1.8 19.5 2.4 19.5 1.4 0-.5-3.6-1.2-8.1-1.6-27.7-2.3-51.7-13.4-71.4-33.1-19.7-19.7-30.8-43.7-33.1-71.4-.4-4.5-1-8.1-1.4-8.1-.4 0-.6 3-.3 6.7z"/><path d="M433.5 328.7c-1.5 16.8-4.9 28.4-12.6 43.3-11.1 21.6-26.3 36.9-48.4 48.8-13.7 7.4-27 11.3-43.8 12.8l-7.7.7v115l14.5-.7c47.9-2.2 98.6-23.2 136.2-56.3 37.5-33 63.2-77.7 73.2-127.3 1.6-8 3.2-19.7 3.6-26 .3-6.3.8-13 1.1-14.8l.5-3.2H434.2l-.7 7.7zm4.1 3.1c-.4 3.1-.9 7.7-1.2 10.2-.7 4.9-4.4 18.3-5 17.7-.5-.5 2.4-18.1 3.6-21.2.5-1.4 1-5.6 1-9.3.1-5.2.3-6.3 1.1-4.9.6 1.1.8 4.2.5 7.5z"/></svg>